<?xml version="1.0" standalone="no"?>
<!DOCTYPE svg PUBLIC "-//W3C//DTD SVG 20010904//EN"
 "http://www.w3.org/TR/2001/REC-SVG-20010904/DTD/svg10.dtd">
<svg version="1.0" xmlns="http://www.w3.org/2000/svg"
 width="512.000000pt" height="512.000000pt" viewBox="0 0 512.000000 512.000000"
 preserveAspectRatio="xMidYMid meet">

<g transform="translate(0.000000,512.000000) scale(0.100000,-0.100000)"
fill="#001DF7" stroke="none">
<path d="M885 4883 c-319 -68 -583 -335 -649 -655 -14 -69 -16 -255 -16 -1668
0 -1754 -3 -1661 62 -1819 84 -201 259 -375 461 -459 156 -65 65 -62 1817 -62
1754 0 1661 -3 1819 62 201 84 375 259 459 461 62 147 62 155 62 939 0 801 3
761 -75 825 -85 70 -201 64 -279 -13 -64 -65 -61 -18 -66 -814 l-5 -725 -32
-68 c-42 -89 -121 -168 -210 -210 l-68 -32 -1605 0 -1605 0 -70 34 c-91 45
-166 120 -208 208 l-32 68 0 1605 0 1605 32 68 c42 88 117 163 208 208 l70 34
720 5 c790 5 756 3 818 66 78 79 84 194 14 279 -64 78 -23 75 -832 74 -600 -1
-732 -3 -790 -16z"/>
<path d="M3324 4881 c-53 -24 -100 -82 -114 -142 -22 -90 26 -189 114 -237 27
-15 80 -17 445 -20 l415 -3 -801 -802 c-843 -844 -823 -821 -823 -906 0 -107
104 -211 211 -211 85 0 62 -20 907 823 l802 802 0 -391 c0 -315 3 -400 15
-440 43 -146 218 -197 334 -98 75 64 72 34 69 815 l-3 696 -27 39 c-15 21 -44
50 -65 64 l-37 25 -700 2 c-665 3 -703 2 -742 -16z"/>
</g>
</svg>
